<svg width="6" height="11" viewBox="0 0 6 11" fill="none" xmlns="http://www.w3.org/2000/svg">
<mask id="mask0_11_508" style="mask-type:luminance" maskUnits="userSpaceOnUse" x="0" y="0" width="6" height="11">
<g clip-path="url(#clip0_11_508)">
<path d="M4.25127 7.81709C4.25127 8.51709 4.25127 9.2171 4.25127 9.9171C4.25127 9.9171 4.25127 9.9171 4.15127 9.9171C3.65127 9.9171 3.15127 9.9171 2.55127 9.9171C2.55127 9.9171 2.45127 9.91709 2.45127 9.81709C2.45127 8.51709 2.45127 7.21709 2.45127 5.81709C2.45127 5.81709 2.45127 5.71709 2.35127 5.71709C1.95127 5.71709 1.55127 5.71709 1.05127 5.71709C1.05127 5.71709 1.05127 5.71711 1.05127 5.61711C1.05127 5.11711 1.05127 4.61711 1.05127 4.11711C1.55127 4.11711 1.95127 4.11711 2.35127 4.11711C2.45127 4.11711 2.45127 4.0171 2.45127 4.0171C2.45127 3.6171 2.45127 3.21709 2.45127 2.71709C2.45127 2.21709 2.65127 1.71709 2.95127 1.31709C3.25127 0.917092 3.75127 0.71711 4.15127 0.61711C4.75127 0.51711 5.25127 0.617086 5.85127 0.717086H5.95127C5.95127 1.21709 5.95127 1.6171 5.95127 2.0171C5.95127 2.1171 5.85127 2.11711 5.85127 2.11711C5.55127 2.11711 5.35127 2.11711 5.15127 2.11711C4.65127 2.11711 4.35127 2.41709 4.35127 2.81709C4.25127 3.01709 4.25127 3.3171 4.25127 3.5171C4.25127 3.7171 4.25127 3.8171 4.25127 4.0171C4.25127 4.1171 4.25127 4.11711 4.35127 4.11711C4.85127 4.11711 5.25127 4.11711 5.75127 4.11711C5.85127 4.11711 5.85127 4.11709 5.85127 4.21709C5.75127 4.71709 5.65127 5.21709 5.65127 5.71709H5.55127C5.15127 5.71709 4.75127 5.71709 4.35127 5.71709C4.25127 5.71709 4.25127 5.71709 4.25127 5.81709C4.25127 6.51709 4.25127 7.21709 4.25127 7.81709Z" fill="white"/>
</g>
</mask>
<g mask="url(#mask0_11_508)">
<path d="M-30.0005 -8.00023H36.9485V18.5718H-30.0005V-8.00023Z" fill="#090F10"/>
</g>
<defs>
<clipPath id="clip0_11_508">
<rect width="5" height="9.5" fill="white" transform="translate(0.951172 0.51709)"/>
</clipPath>
</defs>
</svg>
