<svg width="76" height="48" viewBox="0 0 76 48" fill="none" xmlns="http://www.w3.org/2000/svg">
<mask id="mask0_51_58" style="mask-type:luminance" maskUnits="userSpaceOnUse" x="30" y="8" width="15" height="11">
<g clip-path="url(#clip0_51_58)">
<path d="M35.9067 18.3684C35.7752 18.3684 35.512 18.2368 35.3804 18.1053L31.433 14.1579C31.0383 13.8947 31.0383 13.3684 31.433 12.9737C31.6962 12.7105 32.2225 12.7105 32.4856 12.9737L35.9067 16.3947L43.0119 9.28946C43.4067 8.89472 43.933 8.89472 44.1962 9.28946C44.5909 9.55262 44.5909 10.0789 44.1962 10.4737L36.5646 18.1053C36.3015 18.2368 36.1699 18.3684 35.9067 18.3684Z" fill="white"/>
</g>
</mask>
<g mask="url(#mask0_51_58)">
<path d="M-6.21826 -5.62254H81.8772V54.5172H-6.21826V-5.62254Z" fill="#667982"/>
</g>
<mask id="mask1_51_58" style="mask-type:luminance" maskUnits="userSpaceOnUse" x="36" y="41" width="40" height="7">
<g clip-path="url(#clip1_51_58)">
<path d="M38.6697 42.9737V45.8684C38.6697 46.1316 38.8013 46.2632 39.0645 46.2632H73.5382V42.9737H38.6697ZM74.4592 47.9737H39.0645C37.8802 47.9737 36.9592 47.0527 36.9592 45.8684V42.0527C36.9592 41.6579 37.3539 41.2632 37.7487 41.2632H74.4592C74.854 41.2632 75.2487 41.6579 75.2487 42.0527V47.0527C75.2487 47.579 74.854 47.9737 74.4592 47.9737Z" fill="white"/>
</g>
</mask>
<g mask="url(#mask1_51_58)">
<path d="M-6.21826 -5.62253H81.8772V54.5172H-6.21826V-5.62253Z" fill="#667982"/>
</g>
<mask id="mask2_51_58" style="mask-type:luminance" maskUnits="userSpaceOnUse" x="0" y="41" width="39" height="7">
<g clip-path="url(#clip2_51_58)">
<path d="M1.95933 46.2632H36.5646C36.8278 46.2632 36.9593 46.1316 36.9593 45.8684V42.9737H1.95933V46.2632ZM36.5646 47.9737H1.16985C0.775116 47.9737 0.380371 47.579 0.380371 47.0527V42.0527C0.380371 41.6579 0.775116 41.2632 1.16985 41.2632H37.7488C38.2751 41.2632 38.6699 41.6579 38.6699 42.0527V45.8684C38.6699 47.0527 37.7488 47.9737 36.5646 47.9737Z" fill="white"/>
</g>
</mask>
<g mask="url(#mask2_51_58)">
<path d="M-6.21826 -5.62253H81.8772V54.5172H-6.21826V-5.62253Z" fill="#667982"/>
</g>
<mask id="mask3_51_58" style="mask-type:luminance" maskUnits="userSpaceOnUse" x="36" y="31" width="37" height="12">
<g clip-path="url(#clip3_51_58)">
<path d="M38.6697 41.2632H70.3802V32.9737H47.7487C43.0119 32.9737 39.0645 36.6579 38.6697 41.2632ZM71.1698 42.9737H37.7487C37.3539 42.9737 36.9592 42.579 36.9592 42.0527C36.9592 36.1316 41.8277 31.3948 47.7487 31.3948H71.1698C71.6961 31.3948 71.9592 31.7895 71.9592 32.1842V42.0527C71.9592 42.579 71.6961 42.9737 71.1698 42.9737Z" fill="white"/>
</g>
</mask>
<g mask="url(#mask3_51_58)">
<path d="M-6.21826 -5.62253H81.8772V54.5172H-6.21826V-5.62253Z" fill="#667982"/>
</g>
<mask id="mask4_51_58" style="mask-type:luminance" maskUnits="userSpaceOnUse" x="3" y="31" width="36" height="12">
<g clip-path="url(#clip4_51_58)">
<path d="M5.24888 41.2632H36.9594C36.5647 36.6579 32.6173 32.9737 27.8804 32.9737H5.24888V41.2632ZM37.7489 42.9737H4.4594C3.93308 42.9737 3.53833 42.579 3.53833 42.1842V32.1842C3.53833 31.7895 3.93308 31.3948 4.4594 31.3948H27.8804C33.8015 31.3948 38.6699 36.1316 38.6699 42.0527C38.6699 42.579 38.2752 42.9737 37.7489 42.9737Z" fill="white"/>
</g>
</mask>
<g mask="url(#mask4_51_58)">
<path d="M-6.21826 -5.62253H81.8772V54.5172H-6.21826V-5.62253Z" fill="#667982"/>
</g>
<mask id="mask5_51_58" style="mask-type:luminance" maskUnits="userSpaceOnUse" x="24" y="0" width="26" height="26">
<g clip-path="url(#clip5_51_58)">
<path d="M36.7633 1.57894C34.0001 1.57894 31.1054 2.63157 29.0002 4.86841C24.6581 9.21052 24.6581 16.1842 29.0002 20.5263C33.3423 24.8684 40.3159 24.8684 44.658 20.5263C49.0001 16.1842 49.0001 9.21052 44.658 4.86841C42.4212 2.63157 39.658 1.57894 36.7633 1.57894ZM36.7633 25.3947C33.6054 25.3947 30.3159 24.2105 27.8159 21.7105C22.8159 16.7105 22.8159 8.6842 27.8159 3.6842C32.8159 -1.3158 40.8423 -1.3158 45.8423 3.6842C50.8423 8.6842 50.8423 16.7105 45.8423 21.7105C43.3423 24.2105 40.0527 25.3947 36.7633 25.3947Z" fill="white"/>
</g>
</mask>
<g mask="url(#mask5_51_58)">
<path d="M27.5142 1L35.0142 -1.5L43.0142 -0.5L48.5142 5L51.5142 15L46.5142 22.5L39.0142 27L27.5142 23.5L23.0142 16V9.5L27.5142 1Z" fill="#667982"/>
</g>
<defs>
<clipPath id="clip0_51_58">
<rect width="13.5527" height="9.73684" fill="white" transform="translate(30.9067 8.89478)"/>
</clipPath>
<clipPath id="clip1_51_58">
<rect width="38.4211" height="6.8421" fill="white" transform="translate(36.8276 41.1316)"/>
</clipPath>
<clipPath id="clip2_51_58">
<rect width="38.2895" height="6.8421" fill="white" transform="translate(0.380371 41.1316)"/>
</clipPath>
<clipPath id="clip3_51_58">
<rect width="35.3948" height="11.7105" fill="white" transform="translate(36.8276 31.2632)"/>
</clipPath>
<clipPath id="clip4_51_58">
<rect width="35.2631" height="11.7105" fill="white" transform="translate(3.40674 31.2632)"/>
</clipPath>
<clipPath id="clip5_51_58">
<rect width="25.6579" height="25.5263" fill="white" transform="translate(24)"/>
</clipPath>
</defs>
</svg>
