<svg width="10" height="10" viewBox="0 0 10 10" fill="none" xmlns="http://www.w3.org/2000/svg">
<mask id="mask0_69_491" style="mask-type:luminance" maskUnits="userSpaceOnUse" x="0" y="0" width="10" height="10">
<g clip-path="url(#clip0_69_491)">
<path d="M8.2001 4.69992C8.2001 4.39992 8.3001 3.99992 8.2001 3.69992C8.2001 3.29992 8.2001 2.89991 8.2001 2.59991C8.1001 1.89991 7.6001 1.3999 6.9001 1.2999C6.5001 1.1999 6.1001 1.19992 5.7001 1.19992C5.0001 1.19992 4.2001 1.19992 3.5001 1.19992C3.1001 1.19992 2.7001 1.1999 2.4001 1.2999C1.7001 1.3999 1.2001 1.79991 1.0001 2.49991C0.900099 2.89991 0.900101 3.29992 0.900101 3.69992C0.900101 4.39992 0.900101 4.99991 0.900101 5.59991C0.900101 6.09991 0.900099 6.49991 1.0001 6.99991C1.0001 7.29991 1.1001 7.4999 1.2001 7.7999C1.6001 8.1999 2.0001 8.39991 2.6001 8.49991C3.0001 8.49991 3.5001 8.49991 4.0001 8.49991C4.6001 8.49991 5.2001 8.49991 5.7001 8.49991C6.1001 8.49991 6.6001 8.4999 6.9001 8.3999C7.5001 8.2999 7.9001 7.8999 8.1001 7.2999C8.2001 7.0999 8.2001 6.79991 8.2001 6.49991C8.2001 5.89991 8.2001 5.29992 8.2001 4.69992ZM9.1001 4.7999C9.1001 5.5999 9.1001 6.1999 9.0001 6.7999C9.0001 7.2999 8.9001 7.79992 8.6001 8.19992C8.2001 8.79992 7.7001 9.09992 7.0001 9.19992C6.7001 9.29992 6.3001 9.2999 5.9001 9.2999C5.2001 9.2999 4.6001 9.2999 4.0001 9.2999C3.5001 9.2999 2.9001 9.2999 2.4001 9.2999C1.6001 9.1999 0.900099 8.89991 0.500099 8.09991C0.300099 7.79991 0.200098 7.39991 0.100098 6.99991C0.100098 5.89991 0.100098 4.8999 0.100098 3.7999C0.100098 3.4999 0.100098 3.0999 0.100098 2.7999C0.200098 1.8999 0.600102 1.1999 1.3001 0.799896C1.7001 0.599896 2.1001 0.499902 2.4001 0.399902C3.5001 0.399902 4.6001 0.399902 5.7001 0.399902C6.0001 0.399902 6.3001 0.399902 6.7001 0.399902C7.6001 0.499902 8.3001 0.899921 8.7001 1.69992C8.9001 1.99992 9.0001 2.39992 9.0001 2.69992C9.0001 3.49992 9.0001 4.1999 9.1001 4.7999Z" fill="white"/>
</g>
</mask>
<g mask="url(#mask0_69_491)">
<path d="M-49.0518 -8.41771H17.8973V18.1543H-49.0518V-8.41771Z" fill="#090F10"/>
</g>
<mask id="mask1_69_491" style="mask-type:luminance" maskUnits="userSpaceOnUse" x="2" y="2" width="5" height="6">
<g clip-path="url(#clip1_69_491)">
<path d="M6.10029 4.90007C6.10029 4.00007 5.40029 3.40007 4.60029 3.40007C3.80029 3.40007 3.10029 4.00007 3.10029 4.90007C3.10029 5.70007 3.80029 6.40007 4.60029 6.40007C5.40029 6.40007 6.10029 5.70007 6.10029 4.90007ZM6.90029 4.90007C6.90029 6.10007 5.80029 7.20009 4.60029 7.20009C3.20029 7.20009 2.30029 6.10006 2.30029 4.80006C2.30029 3.60006 3.30029 2.50008 4.60029 2.60008C5.80029 2.60008 6.90029 3.60007 6.90029 4.90007Z" fill="white"/>
</g>
</mask>
<g mask="url(#mask1_69_491)">
<path d="M-49.0513 -8.41722H17.8978V18.1548H-49.0513V-8.41722Z" fill="#090F10"/>
</g>
<mask id="mask2_69_491" style="mask-type:luminance" maskUnits="userSpaceOnUse" x="6" y="1" width="2" height="3">
<g clip-path="url(#clip2_69_491)">
<path d="M7.4999 2.49991C7.4999 2.79991 7.2999 2.99991 6.9999 2.99991C6.6999 2.99991 6.3999 2.79991 6.3999 2.49991C6.3999 2.19991 6.6999 1.8999 6.9999 1.8999C7.2999 1.8999 7.4999 2.19991 7.4999 2.49991Z" fill="white"/>
</g>
</mask>
<g mask="url(#mask2_69_491)">
<path d="M-49.0518 -8.41771H17.8973V18.1543H-49.0518V-8.41771Z" fill="#090F10"/>
</g>
<defs>
<clipPath id="clip0_69_491">
<rect width="9.1" height="9.10001" fill="white" transform="translate(0 0.299805)"/>
</clipPath>
<clipPath id="clip1_69_491">
<rect width="4.7" height="4.79999" fill="white" transform="translate(2.2002 2.5)"/>
</clipPath>
<clipPath id="clip2_69_491">
<rect width="1.1" height="1.20001" fill="white" transform="translate(6.3999 1.8999)"/>
</clipPath>
</defs>
</svg>
