<svg width="9" height="9" viewBox="0 0 9 9" fill="none" xmlns="http://www.w3.org/2000/svg">
<mask id="mask0_69_492" style="mask-type:luminance" maskUnits="userSpaceOnUse" x="3" y="3" width="6" height="6">
<g clip-path="url(#clip0_69_492)">
<path d="M4.7999 3.90007C5.0999 3.60007 5.3999 3.30009 5.7999 3.20009C6.4999 3.00009 7.1999 3.10009 7.7999 3.60009C8.1999 3.90009 8.2999 4.30007 8.3999 4.80007C8.3999 4.90007 8.3999 5.00009 8.3999 5.10009C8.3999 6.10009 8.3999 7.10009 8.3999 8.10009C8.3999 8.20009 8.3999 8.20009 8.2999 8.20009C7.8999 8.20009 7.3999 8.20009 6.9999 8.20009C6.8999 8.20009 6.8999 8.20009 6.8999 8.10009C6.8999 7.30009 6.8999 6.40008 6.8999 5.50008C6.8999 5.50008 6.8999 5.40007 6.8999 5.30007C6.7999 4.70007 6.2999 4.40008 5.6999 4.50008C5.1999 4.70008 4.8999 5.00009 4.8999 5.60009C4.8999 6.40009 4.8999 7.30009 4.8999 8.10009C4.8999 8.30009 4.8999 8.20009 4.7999 8.20009C4.2999 8.20009 3.8999 8.20009 3.4999 8.20009C3.3999 8.20009 3.3999 8.20009 3.3999 8.10009C3.3999 6.50009 3.3999 4.90007 3.3999 3.30007C3.3999 3.20007 3.3999 3.20009 3.4999 3.20009C3.8999 3.20009 4.2999 3.20009 4.6999 3.20009C4.7999 3.20009 4.7999 3.20007 4.7999 3.30007C4.7999 3.50007 4.7999 3.70007 4.7999 3.90007Z" fill="white"/>
</g>
</mask>
<g mask="url(#mask0_69_492)">
<path d="M-9.05176 -8.41722H57.8973V18.1548H-9.05176V-8.41722Z" fill="#090F10"/>
</g>
<mask id="mask1_69_492" style="mask-type:luminance" maskUnits="userSpaceOnUse" x="0" y="3" width="3" height="6">
<g clip-path="url(#clip1_69_492)">
<path d="M2.5 5.7002C2.5 6.5002 2.5 7.30019 2.5 8.10019C2.5 8.20019 2.5 8.2002 2.4 8.2002C2 8.2002 1.5 8.2002 1.1 8.2002C0.999998 8.2002 1 8.20019 1 8.10019C1 6.50019 1 4.90017 1 3.30017C1 3.20017 0.999998 3.2002 1.1 3.2002C1.5 3.2002 2 3.2002 2.4 3.2002C2.5 3.2002 2.5 3.20017 2.5 3.30017C2.5 4.10017 2.5 4.9002 2.5 5.7002Z" fill="white"/>
</g>
</mask>
<g mask="url(#mask1_69_492)">
<path d="M-9.05176 -8.41722H57.8973V18.1548H-9.05176V-8.41722Z" fill="#090F10"/>
</g>
<mask id="mask2_69_492" style="mask-type:luminance" maskUnits="userSpaceOnUse" x="0" y="0" width="3" height="3">
<g clip-path="url(#clip2_69_492)">
<path d="M1.6999 0.600098C2.1999 0.600098 2.5999 1.00009 2.5999 1.50009C2.5999 2.00009 2.1999 2.40009 1.7999 2.40009C1.2999 2.40009 0.899902 2.00009 0.899902 1.50009C0.899902 1.00009 1.1999 0.600098 1.6999 0.600098Z" fill="white"/>
</g>
</mask>
<g mask="url(#mask2_69_492)">
<path d="M-9.05176 -8.41722H57.8973V18.1548H-9.05176V-8.41722Z" fill="#090F10"/>
</g>
<defs>
<clipPath id="clip0_69_492">
<rect width="5.2" height="5.29999" fill="white" transform="translate(3.2998 3)"/>
</clipPath>
<clipPath id="clip1_69_492">
<rect width="1.7" height="5.19998" fill="white" transform="translate(0.899902 3.1001)"/>
</clipPath>
<clipPath id="clip2_69_492">
<rect width="1.89999" height="1.89999" fill="white" transform="translate(0.799805 0.600098)"/>
</clipPath>
</defs>
</svg>
